
<svg height="574pt" viewBox="0.00 0.00 674.00 636.00" width="608pt" xmlns="http://www.w3.org/2000/svg" xmlns:xlink="http://www.w3.org/1999/xlink">
<g class="graph" id="graph0" transform="scale(.9028 .9028) rotate(0) translate(4 632)">
<title>G</title>
<polygon fill="#ffffff" points="-4,4 -4,-632 670,-632 670,4 -4,4" stroke="transparent"/>
<!-- 140400093618248 -->
<g class="node" id="node1">
<title>140400093618248</title>
<polygon fill="none" points="84,-581.5 84,-627.5 347,-627.5 347,-581.5 84,-581.5" stroke="#000000"/>
<text fill="#000000" font-family="Times,serif" font-size="14.00" text-anchor="middle" x="155" y="-600.8">input_ids: InputLayer</text>
<polyline fill="none" points="226,-581.5 226,-627.5 " stroke="#000000"/>
<text fill="#000000" font-family="Times,serif" font-size="14.00" text-anchor="middle" x="255" y="-612.3">input:</text>
<polyline fill="none" points="226,-604.5 284,-604.5 " stroke="#000000"/>
<text fill="#000000" font-family="Times,serif" font-size="14.00" text-anchor="middle" x="255" y="-589.3">output:</text>
<polyline fill="none" points="284,-581.5 284,-627.5 " stroke="#000000"/>
<text fill="#000000" font-family="Times,serif" font-size="14.00" text-anchor="middle" x="315.5" y="-612.3">[(?, 64)]</text>
<polyline fill="none" points="284,-604.5 347,-604.5 " stroke="#000000"/>
<text fill="#000000" font-family="Times,serif" font-size="14.00" text-anchor="middle" x="315.5" y="-589.3">[(?, 64)]</text>
</g>
<!-- 140400477096592 -->
<g class="node" id="node3">
<title>140400477096592</title>
<polygon fill="none" points="21.5,-498.5 21.5,-544.5 409.5,-544.5 409.5,-498.5 21.5,-498.5" stroke="#000000"/>
<text fill="#000000" font-family="Times,serif" font-size="14.00" text-anchor="middle" x="113.5" y="-517.8">tf_bert_model: TFBertModel</text>
<polyline fill="none" points="205.5,-498.5 205.5,-544.5 " stroke="#000000"/>
<text fill="#000000" font-family="Times,serif" font-size="14.00" text-anchor="middle" x="234.5" y="-529.3">input:</text>
<polyline fill="none" points="205.5,-521.5 263.5,-521.5 " stroke="#000000"/>
<text fill="#000000" font-family="Times,serif" font-size="14.00" text-anchor="middle" x="234.5" y="-506.3">output:</text>
<polyline fill="none" points="263.5,-498.5 263.5,-544.5 " stroke="#000000"/>
<text fill="#000000" font-family="Times,serif" font-size="14.00" text-anchor="middle" x="336.5" y="-529.3">(?, 64)</text>
<polyline fill="none" points="263.5,-521.5 409.5,-521.5 " stroke="#000000"/>
<text fill="#000000" font-family="Times,serif" font-size="14.00" text-anchor="middle" x="336.5" y="-506.3">((?, 64, 768), (?, 768))</text>
</g>
<!-- 140400093618248&#45;&gt;140400477096592 -->
<g class="edge" id="edge1">
<title>140400093618248-&gt;140400477096592</title>
<path d="M215.5,-581.3799C215.5,-573.1745 215.5,-563.7679 215.5,-554.8786" fill="none" stroke="#000000"/>
<polygon fill="#000000" points="219.0001,-554.784 215.5,-544.784 212.0001,-554.784 219.0001,-554.784" stroke="#000000"/>
</g>
<!-- 140400093619704 -->
<g class="node" id="node2">
<title>140400093619704</title>
<polygon fill="none" points="365,-581.5 365,-627.5 666,-627.5 666,-581.5 365,-581.5" stroke="#000000"/>
<text fill="#000000" font-family="Times,serif" font-size="14.00" text-anchor="middle" x="455" y="-600.8">attention_masks: InputLayer</text>
<polyline fill="none" points="545,-581.5 545,-627.5 " stroke="#000000"/>
<text fill="#000000" font-family="Times,serif" font-size="14.00" text-anchor="middle" x="574" y="-612.3">input:</text>
<polyline fill="none" points="545,-604.5 603,-604.5 " stroke="#000000"/>
<text fill="#000000" font-family="Times,serif" font-size="14.00" text-anchor="middle" x="574" y="-589.3">output:</text>
<polyline fill="none" points="603,-581.5 603,-627.5 " stroke="#000000"/>
<text fill="#000000" font-family="Times,serif" font-size="14.00" text-anchor="middle" x="634.5" y="-612.3">[(?, 64)]</text>
<polyline fill="none" points="603,-604.5 666,-604.5 " stroke="#000000"/>
<text fill="#000000" font-family="Times,serif" font-size="14.00" text-anchor="middle" x="634.5" y="-589.3">[(?, 64)]</text>
</g>
<!-- 140400373721520 -->
<g class="node" id="node4">
<title>140400373721520</title>
<polygon fill="none" points="19.5,-415.5 19.5,-461.5 411.5,-461.5 411.5,-415.5 19.5,-415.5" stroke="#000000"/>
<text fill="#000000" font-family="Times,serif" font-size="14.00" text-anchor="middle" x="144.5" y="-434.8">bidirectional(lstm): Bidirectional(LSTM)</text>
<polyline fill="none" points="269.5,-415.5 269.5,-461.5 " stroke="#000000"/>
<text fill="#000000" font-family="Times,serif" font-size="14.00" text-anchor="middle" x="298.5" y="-446.3">input:</text>
<polyline fill="none" points="269.5,-438.5 327.5,-438.5 " stroke="#000000"/>
<text fill="#000000" font-family="Times,serif" font-size="14.00" text-anchor="middle" x="298.5" y="-423.3">output:</text>
<polyline fill="none" points="327.5,-415.5 327.5,-461.5 " stroke="#000000"/>
<text fill="#000000" font-family="Times,serif" font-size="14.00" text-anchor="middle" x="369.5" y="-446.3">(?, 64, 768)</text>
<polyline fill="none" points="327.5,-438.5 411.5,-438.5 " stroke="#000000"/>
<text fill="#000000" font-family="Times,serif" font-size="14.00" text-anchor="middle" x="369.5" y="-423.3">(?, 64, 100)</text>
</g>
<!-- 140400477096592&#45;&gt;140400373721520 -->
<g class="edge" id="edge2">
<title>140400477096592-&gt;140400373721520</title>
<path d="M215.5,-498.3799C215.5,-490.1745 215.5,-480.7679 215.5,-471.8786" fill="none" stroke="#000000"/>
<polygon fill="#000000" points="219.0001,-471.784 215.5,-461.784 212.0001,-471.784 219.0001,-471.784" stroke="#000000"/>
</g>
<!-- 140400505957456 -->
<g class="node" id="node5">
<title>140400505957456</title>
<polygon fill="none" points="0,-332.5 0,-378.5 431,-378.5 431,-332.5 0,-332.5" stroke="#000000"/>
<text fill="#000000" font-family="Times,serif" font-size="14.00" text-anchor="middle" x="144.5" y="-351.8">global_max_pooling1d: GlobalMaxPooling1D</text>
<polyline fill="none" points="289,-332.5 289,-378.5 " stroke="#000000"/>
<text fill="#000000" font-family="Times,serif" font-size="14.00" text-anchor="middle" x="318" y="-363.3">input:</text>
<polyline fill="none" points="289,-355.5 347,-355.5 " stroke="#000000"/>
<text fill="#000000" font-family="Times,serif" font-size="14.00" text-anchor="middle" x="318" y="-340.3">output:</text>
<polyline fill="none" points="347,-332.5 347,-378.5 " stroke="#000000"/>
<text fill="#000000" font-family="Times,serif" font-size="14.00" text-anchor="middle" x="389" y="-363.3">(?, 64, 100)</text>
<polyline fill="none" points="347,-355.5 431,-355.5 " stroke="#000000"/>
<text fill="#000000" font-family="Times,serif" font-size="14.00" text-anchor="middle" x="389" y="-340.3">(?, 100)</text>
</g>
<!-- 140400373721520&#45;&gt;140400505957456 -->
<g class="edge" id="edge3">
<title>140400373721520-&gt;140400505957456</title>
<path d="M215.5,-415.3799C215.5,-407.1745 215.5,-397.7679 215.5,-388.8786" fill="none" stroke="#000000"/>
<polygon fill="#000000" points="219.0001,-388.784 215.5,-378.784 212.0001,-388.784 219.0001,-388.784" stroke="#000000"/>
</g>
<!-- 140400482217936 -->
<g class="node" id="node6">
<title>140400482217936</title>
<polygon fill="none" points="27.5,-249.5 27.5,-295.5 403.5,-295.5 403.5,-249.5 27.5,-249.5" stroke="#000000"/>
<text fill="#000000" font-family="Times,serif" font-size="14.00" text-anchor="middle" x="155.5" y="-268.8">batch_normalization: BatchNormalization</text>
<polyline fill="none" points="283.5,-249.5 283.5,-295.5 " stroke="#000000"/>
<text fill="#000000" font-family="Times,serif" font-size="14.00" text-anchor="middle" x="312.5" y="-280.3">input:</text>
<polyline fill="none" points="283.5,-272.5 341.5,-272.5 " stroke="#000000"/>
<text fill="#000000" font-family="Times,serif" font-size="14.00" text-anchor="middle" x="312.5" y="-257.3">output:</text>
<polyline fill="none" points="341.5,-249.5 341.5,-295.5 " stroke="#000000"/>
<text fill="#000000" font-family="Times,serif" font-size="14.00" text-anchor="middle" x="372.5" y="-280.3">(?, 100)</text>
<polyline fill="none" points="341.5,-272.5 403.5,-272.5 " stroke="#000000"/>
<text fill="#000000" font-family="Times,serif" font-size="14.00" text-anchor="middle" x="372.5" y="-257.3">(?, 100)</text>
</g>
<!-- 140400505957456&#45;&gt;140400482217936 -->
<g class="edge" id="edge4">
<title>140400505957456-&gt;140400482217936</title>
<path d="M215.5,-332.3799C215.5,-324.1745 215.5,-314.7679 215.5,-305.8786" fill="none" stroke="#000000"/>
<polygon fill="#000000" points="219.0001,-305.784 215.5,-295.784 212.0001,-305.784 219.0001,-305.784" stroke="#000000"/>
</g>
<!-- 140400505305296 -->
<g class="node" id="node7">
<title>140400505305296</title>
<polygon fill="none" points="109.5,-166.5 109.5,-212.5 321.5,-212.5 321.5,-166.5 109.5,-166.5" stroke="#000000"/>
<text fill="#000000" font-family="Times,serif" font-size="14.00" text-anchor="middle" x="155.5" y="-185.8">dense: Dense</text>
<polyline fill="none" points="201.5,-166.5 201.5,-212.5 " stroke="#000000"/>
<text fill="#000000" font-family="Times,serif" font-size="14.00" text-anchor="middle" x="230.5" y="-197.3">input:</text>
<polyline fill="none" points="201.5,-189.5 259.5,-189.5 " stroke="#000000"/>
<text fill="#000000" font-family="Times,serif" font-size="14.00" text-anchor="middle" x="230.5" y="-174.3">output:</text>
<polyline fill="none" points="259.5,-166.5 259.5,-212.5 " stroke="#000000"/>
<text fill="#000000" font-family="Times,serif" font-size="14.00" text-anchor="middle" x="290.5" y="-197.3">(?, 100)</text>
<polyline fill="none" points="259.5,-189.5 321.5,-189.5 " stroke="#000000"/>
<text fill="#000000" font-family="Times,serif" font-size="14.00" text-anchor="middle" x="290.5" y="-174.3">(?, 192)</text>
</g>
<!-- 140400482217936&#45;&gt;140400505305296 -->
<g class="edge" id="edge5">
<title>140400482217936-&gt;140400505305296</title>
<path d="M215.5,-249.3799C215.5,-241.1745 215.5,-231.7679 215.5,-222.8786" fill="none" stroke="#000000"/>
<polygon fill="#000000" points="219.0001,-222.784 215.5,-212.784 212.0001,-222.784 219.0001,-222.784" stroke="#000000"/>
</g>
<!-- 140400505305408 -->
<g class="node" id="node8">
<title>140400505305408</title>
<polygon fill="none" points="96,-83.5 96,-129.5 335,-129.5 335,-83.5 96,-83.5" stroke="#000000"/>
<text fill="#000000" font-family="Times,serif" font-size="14.00" text-anchor="middle" x="155.5" y="-102.8">dropout: Dropout</text>
<polyline fill="none" points="215,-83.5 215,-129.5 " stroke="#000000"/>
<text fill="#000000" font-family="Times,serif" font-size="14.00" text-anchor="middle" x="244" y="-114.3">input:</text>
<polyline fill="none" points="215,-106.5 273,-106.5 " stroke="#000000"/>
<text fill="#000000" font-family="Times,serif" font-size="14.00" text-anchor="middle" x="244" y="-91.3">output:</text>
<polyline fill="none" points="273,-83.5 273,-129.5 " stroke="#000000"/>
<text fill="#000000" font-family="Times,serif" font-size="14.00" text-anchor="middle" x="304" y="-114.3">(?, 192)</text>
<polyline fill="none" points="273,-106.5 335,-106.5 " stroke="#000000"/>
<text fill="#000000" font-family="Times,serif" font-size="14.00" text-anchor="middle" x="304" y="-91.3">(?, 192)</text>
</g>
<!-- 140400505305296&#45;&gt;140400505305408 -->
<g class="edge" id="edge6">
<title>140400505305296-&gt;140400505305408</title>
<path d="M215.5,-166.3799C215.5,-158.1745 215.5,-148.7679 215.5,-139.8786" fill="none" stroke="#000000"/>
<polygon fill="#000000" points="219.0001,-139.784 215.5,-129.784 212.0001,-139.784 219.0001,-139.784" stroke="#000000"/>
</g>
<!-- 140400482355352 -->
<g class="node" id="node9">
<title>140400482355352</title>
<polygon fill="none" points="102,-.5 102,-46.5 329,-46.5 329,-.5 102,-.5" stroke="#000000"/>
<text fill="#000000" font-family="Times,serif" font-size="14.00" text-anchor="middle" x="155.5" y="-19.8">dense_1: Dense</text>
<polyline fill="none" points="209,-.5 209,-46.5 " stroke="#000000"/>
<text fill="#000000" font-family="Times,serif" font-size="14.00" text-anchor="middle" x="238" y="-31.3">input:</text>
<polyline fill="none" points="209,-23.5 267,-23.5 " stroke="#000000"/>
<text fill="#000000" font-family="Times,serif" font-size="14.00" text-anchor="middle" x="238" y="-8.3">output:</text>
<polyline fill="none" points="267,-.5 267,-46.5 " stroke="#000000"/>
<text fill="#000000" font-family="Times,serif" font-size="14.00" text-anchor="middle" x="298" y="-31.3">(?, 192)</text>
<polyline fill="none" points="267,-23.5 329,-23.5 " stroke="#000000"/>
<text fill="#000000" font-family="Times,serif" font-size="14.00" text-anchor="middle" x="298" y="-8.3">(?, 1)</text>
</g>
<!-- 140400505305408&#45;&gt;140400482355352 -->
<g class="edge" id="edge7">
<title>140400505305408-&gt;140400482355352</title>
<path d="M215.5,-83.3799C215.5,-75.1745 215.5,-65.7679 215.5,-56.8786" fill="none" stroke="#000000"/>
<polygon fill="#000000" points="219.0001,-56.784 215.5,-46.784 212.0001,-56.784 219.0001,-56.784" stroke="#000000"/>
</g>
</g>
</svg>