
<svg height="200pt" viewBox="0.00 0.00 608.00 221.00" width="549pt" xmlns="http://www.w3.org/2000/svg" xmlns:xlink="http://www.w3.org/1999/xlink">
<g class="graph" id="graph0" transform="scale(.9028 .9028) rotate(0) translate(4 217)">
<title>G</title>
<polygon fill="#ffffff" points="-4,4 -4,-217 604,-217 604,4 -4,4" stroke="transparent"/>
<!-- 139799163342688 -->
<g class="node" id="node1">
<title>139799163342688</title>
<polygon fill="none" points="18,-166.5 18,-212.5 281,-212.5 281,-166.5 18,-166.5" stroke="#000000"/>
<text fill="#000000" font-family="Times,serif" font-size="14.00" text-anchor="middle" x="89" y="-185.8">input_ids: InputLayer</text>
<polyline fill="none" points="160,-166.5 160,-212.5 " stroke="#000000"/>
<text fill="#000000" font-family="Times,serif" font-size="14.00" text-anchor="middle" x="189" y="-197.3">input:</text>
<polyline fill="none" points="160,-189.5 218,-189.5 " stroke="#000000"/>
<text fill="#000000" font-family="Times,serif" font-size="14.00" text-anchor="middle" x="189" y="-174.3">output:</text>
<polyline fill="none" points="218,-166.5 218,-212.5 " stroke="#000000"/>
<text fill="#000000" font-family="Times,serif" font-size="14.00" text-anchor="middle" x="249.5" y="-197.3">[(?, 64)]</text>
<polyline fill="none" points="218,-189.5 281,-189.5 " stroke="#000000"/>
<text fill="#000000" font-family="Times,serif" font-size="14.00" text-anchor="middle" x="249.5" y="-174.3">[(?, 64)]</text>
</g>
<!-- 139799179876952 -->
<g class="node" id="node3">
<title>139799179876952</title>
<polygon fill="none" points="0,-83.5 0,-129.5 599,-129.5 599,-83.5 0,-83.5" stroke="#000000"/>
<text fill="#000000" font-family="Times,serif" font-size="14.00" text-anchor="middle" x="216.5" y="-102.8">tf_bert_for_sequence_classification_1: TFBertForSequenceClassification</text>
<polyline fill="none" points="433,-83.5 433,-129.5 " stroke="#000000"/>
<text fill="#000000" font-family="Times,serif" font-size="14.00" text-anchor="middle" x="462" y="-114.3">input:</text>
<polyline fill="none" points="433,-106.5 491,-106.5 " stroke="#000000"/>
<text fill="#000000" font-family="Times,serif" font-size="14.00" text-anchor="middle" x="462" y="-91.3">output:</text>
<polyline fill="none" points="491,-83.5 491,-129.5 " stroke="#000000"/>
<text fill="#000000" font-family="Times,serif" font-size="14.00" text-anchor="middle" x="545" y="-114.3">[(?, 64), (?, 64)]</text>
<polyline fill="none" points="491,-106.5 599,-106.5 " stroke="#000000"/>
<text fill="#000000" font-family="Times,serif" font-size="14.00" text-anchor="middle" x="545" y="-91.3">((?, 2),)</text>
</g>
<!-- 139799163342688&#45;&gt;139799179876952 -->
<g class="edge" id="edge1">
<title>139799163342688-&gt;139799179876952</title>
<path d="M191.2834,-166.3799C209.0881,-156.5279 230.0226,-144.9442 248.7107,-134.6034" fill="none" stroke="#000000"/>
<polygon fill="#000000" points="250.6256,-137.544 257.6808,-129.6399 247.2364,-131.4191 250.6256,-137.544" stroke="#000000"/>
</g>
<!-- 139799163453792 -->
<g class="node" id="node2">
<title>139799163453792</title>
<polygon fill="none" points="299,-166.5 299,-212.5 600,-212.5 600,-166.5 299,-166.5" stroke="#000000"/>
<text fill="#000000" font-family="Times,serif" font-size="14.00" text-anchor="middle" x="389" y="-185.8">attention_masks: InputLayer</text>
<polyline fill="none" points="479,-166.5 479,-212.5 " stroke="#000000"/>
<text fill="#000000" font-family="Times,serif" font-size="14.00" text-anchor="middle" x="508" y="-197.3">input:</text>
<polyline fill="none" points="479,-189.5 537,-189.5 " stroke="#000000"/>
<text fill="#000000" font-family="Times,serif" font-size="14.00" text-anchor="middle" x="508" y="-174.3">output:</text>
<polyline fill="none" points="537,-166.5 537,-212.5 " stroke="#000000"/>
<text fill="#000000" font-family="Times,serif" font-size="14.00" text-anchor="middle" x="568.5" y="-197.3">[(?, 64)]</text>
<polyline fill="none" points="537,-189.5 600,-189.5 " stroke="#000000"/>
<text fill="#000000" font-family="Times,serif" font-size="14.00" text-anchor="middle" x="568.5" y="-174.3">[(?, 64)]</text>
</g>
<!-- 139799163453792&#45;&gt;139799179876952 -->
<g class="edge" id="edge2">
<title>139799163453792-&gt;139799179876952</title>
<path d="M407.7166,-166.3799C389.9119,-156.5279 368.9774,-144.9442 350.2893,-134.6034" fill="none" stroke="#000000"/>
<polygon fill="#000000" points="351.7636,-131.4191 341.3192,-129.6399 348.3744,-137.544 351.7636,-131.4191" stroke="#000000"/>
</g>
<!-- 139799163797064 -->
<g class="node" id="node4">
<title>139799163797064</title>
<polygon fill="none" points="201,-.5 201,-46.5 398,-46.5 398,-.5 201,-.5" stroke="#000000"/>
<text fill="#000000" font-family="Times,serif" font-size="14.00" text-anchor="middle" x="247" y="-19.8">dense: Dense</text>
<polyline fill="none" points="293,-.5 293,-46.5 " stroke="#000000"/>
<text fill="#000000" font-family="Times,serif" font-size="14.00" text-anchor="middle" x="322" y="-31.3">input:</text>
<polyline fill="none" points="293,-23.5 351,-23.5 " stroke="#000000"/>
<text fill="#000000" font-family="Times,serif" font-size="14.00" text-anchor="middle" x="322" y="-8.3">output:</text>
<polyline fill="none" points="351,-.5 351,-46.5 " stroke="#000000"/>
<text fill="#000000" font-family="Times,serif" font-size="14.00" text-anchor="middle" x="374.5" y="-31.3">(?, 2)</text>
<polyline fill="none" points="351,-23.5 398,-23.5 " stroke="#000000"/>
<text fill="#000000" font-family="Times,serif" font-size="14.00" text-anchor="middle" x="374.5" y="-8.3">(?, 1)</text>
</g>
<!-- 139799179876952&#45;&gt;139799163797064 -->
<g class="edge" id="edge3">
<title>139799179876952-&gt;139799163797064</title>
<path d="M299.5,-83.3799C299.5,-75.1745 299.5,-65.7679 299.5,-56.8786" fill="none" stroke="#000000"/>
<polygon fill="#000000" points="303.0001,-56.784 299.5,-46.784 296.0001,-56.784 303.0001,-56.784" stroke="#000000"/>
</g>
</g>
</svg>