
<svg height="499pt" viewBox="0.00 0.00 673.50 553.00" width="608pt" xmlns="http://www.w3.org/2000/svg" xmlns:xlink="http://www.w3.org/1999/xlink">
<g class="graph" id="graph0" transform="scale(.9028 .9028) rotate(0) translate(4 549)">
<title>G</title>
<polygon fill="#ffffff" points="-4,4 -4,-549 669.5,-549 669.5,4 -4,4" stroke="transparent"/>
<!-- 140447999674296 -->
<g class="node" id="node1">
<title>140447999674296</title>
<polygon fill="none" points="83.5,-498.5 83.5,-544.5 346.5,-544.5 346.5,-498.5 83.5,-498.5" stroke="#000000"/>
<text fill="#000000" font-family="Times,serif" font-size="14.00" text-anchor="middle" x="154.5" y="-517.8">input_ids: InputLayer</text>
<polyline fill="none" points="225.5,-498.5 225.5,-544.5 " stroke="#000000"/>
<text fill="#000000" font-family="Times,serif" font-size="14.00" text-anchor="middle" x="254.5" y="-529.3">input:</text>
<polyline fill="none" points="225.5,-521.5 283.5,-521.5 " stroke="#000000"/>
<text fill="#000000" font-family="Times,serif" font-size="14.00" text-anchor="middle" x="254.5" y="-506.3">output:</text>
<polyline fill="none" points="283.5,-498.5 283.5,-544.5 " stroke="#000000"/>
<text fill="#000000" font-family="Times,serif" font-size="14.00" text-anchor="middle" x="315" y="-529.3">[(?, 64)]</text>
<polyline fill="none" points="283.5,-521.5 346.5,-521.5 " stroke="#000000"/>
<text fill="#000000" font-family="Times,serif" font-size="14.00" text-anchor="middle" x="315" y="-506.3">[(?, 64)]</text>
</g>
<!-- 140448138846672 -->
<g class="node" id="node3">
<title>140448138846672</title>
<polygon fill="none" points="21,-415.5 21,-461.5 409,-461.5 409,-415.5 21,-415.5" stroke="#000000"/>
<text fill="#000000" font-family="Times,serif" font-size="14.00" text-anchor="middle" x="113" y="-434.8">tf_bert_model: TFBertModel</text>
<polyline fill="none" points="205,-415.5 205,-461.5 " stroke="#000000"/>
<text fill="#000000" font-family="Times,serif" font-size="14.00" text-anchor="middle" x="234" y="-446.3">input:</text>
<polyline fill="none" points="205,-438.5 263,-438.5 " stroke="#000000"/>
<text fill="#000000" font-family="Times,serif" font-size="14.00" text-anchor="middle" x="234" y="-423.3">output:</text>
<polyline fill="none" points="263,-415.5 263,-461.5 " stroke="#000000"/>
<text fill="#000000" font-family="Times,serif" font-size="14.00" text-anchor="middle" x="336" y="-446.3">(?, 64)</text>
<polyline fill="none" points="263,-438.5 409,-438.5 " stroke="#000000"/>
<text fill="#000000" font-family="Times,serif" font-size="14.00" text-anchor="middle" x="336" y="-423.3">((?, 64, 768), (?, 768))</text>
</g>
<!-- 140447999674296&#45;&gt;140448138846672 -->
<g class="edge" id="edge1">
<title>140447999674296-&gt;140448138846672</title>
<path d="M215,-498.3799C215,-490.1745 215,-480.7679 215,-471.8786" fill="none" stroke="#000000"/>
<polygon fill="#000000" points="218.5001,-471.784 215,-461.784 211.5001,-471.784 218.5001,-471.784" stroke="#000000"/>
</g>
<!-- 140447999458328 -->
<g class="node" id="node2">
<title>140447999458328</title>
<polygon fill="none" points="364.5,-498.5 364.5,-544.5 665.5,-544.5 665.5,-498.5 364.5,-498.5" stroke="#000000"/>
<text fill="#000000" font-family="Times,serif" font-size="14.00" text-anchor="middle" x="454.5" y="-517.8">attention_masks: InputLayer</text>
<polyline fill="none" points="544.5,-498.5 544.5,-544.5 " stroke="#000000"/>
<text fill="#000000" font-family="Times,serif" font-size="14.00" text-anchor="middle" x="573.5" y="-529.3">input:</text>
<polyline fill="none" points="544.5,-521.5 602.5,-521.5 " stroke="#000000"/>
<text fill="#000000" font-family="Times,serif" font-size="14.00" text-anchor="middle" x="573.5" y="-506.3">output:</text>
<polyline fill="none" points="602.5,-498.5 602.5,-544.5 " stroke="#000000"/>
<text fill="#000000" font-family="Times,serif" font-size="14.00" text-anchor="middle" x="634" y="-529.3">[(?, 64)]</text>
<polyline fill="none" points="602.5,-521.5 665.5,-521.5 " stroke="#000000"/>
<text fill="#000000" font-family="Times,serif" font-size="14.00" text-anchor="middle" x="634" y="-506.3">[(?, 64)]</text>
</g>
<!-- 140447999675472 -->
<g class="node" id="node4">
<title>140447999675472</title>
<polygon fill="none" points="0,-332.5 0,-378.5 430,-378.5 430,-332.5 0,-332.5" stroke="#000000"/>
<text fill="#000000" font-family="Times,serif" font-size="14.00" text-anchor="middle" x="144" y="-351.8">tf_op_layer_strided_slice: TensorFlowOpLayer</text>
<polyline fill="none" points="288,-332.5 288,-378.5 " stroke="#000000"/>
<text fill="#000000" font-family="Times,serif" font-size="14.00" text-anchor="middle" x="317" y="-363.3">input:</text>
<polyline fill="none" points="288,-355.5 346,-355.5 " stroke="#000000"/>
<text fill="#000000" font-family="Times,serif" font-size="14.00" text-anchor="middle" x="317" y="-340.3">output:</text>
<polyline fill="none" points="346,-332.5 346,-378.5 " stroke="#000000"/>
<text fill="#000000" font-family="Times,serif" font-size="14.00" text-anchor="middle" x="388" y="-363.3">(?, 64, 768)</text>
<polyline fill="none" points="346,-355.5 430,-355.5 " stroke="#000000"/>
<text fill="#000000" font-family="Times,serif" font-size="14.00" text-anchor="middle" x="388" y="-340.3">[(?, 768)]</text>
</g>
<!-- 140448138846672&#45;&gt;140447999675472 -->
<g class="edge" id="edge2">
<title>140448138846672-&gt;140447999675472</title>
<path d="M215,-415.3799C215,-407.1745 215,-397.7679 215,-388.8786" fill="none" stroke="#000000"/>
<polygon fill="#000000" points="218.5001,-388.784 215,-378.784 211.5001,-388.784 218.5001,-388.784" stroke="#000000"/>
</g>
<!-- 140447999675976 -->
<g class="node" id="node5">
<title>140447999675976</title>
<polygon fill="none" points="27,-249.5 27,-295.5 403,-295.5 403,-249.5 27,-249.5" stroke="#000000"/>
<text fill="#000000" font-family="Times,serif" font-size="14.00" text-anchor="middle" x="155" y="-268.8">batch_normalization: BatchNormalization</text>
<polyline fill="none" points="283,-249.5 283,-295.5 " stroke="#000000"/>
<text fill="#000000" font-family="Times,serif" font-size="14.00" text-anchor="middle" x="312" y="-280.3">input:</text>
<polyline fill="none" points="283,-272.5 341,-272.5 " stroke="#000000"/>
<text fill="#000000" font-family="Times,serif" font-size="14.00" text-anchor="middle" x="312" y="-257.3">output:</text>
<polyline fill="none" points="341,-249.5 341,-295.5 " stroke="#000000"/>
<text fill="#000000" font-family="Times,serif" font-size="14.00" text-anchor="middle" x="372" y="-280.3">(?, 768)</text>
<polyline fill="none" points="341,-272.5 403,-272.5 " stroke="#000000"/>
<text fill="#000000" font-family="Times,serif" font-size="14.00" text-anchor="middle" x="372" y="-257.3">(?, 768)</text>
</g>
<!-- 140447999675472&#45;&gt;140447999675976 -->
<g class="edge" id="edge3">
<title>140447999675472-&gt;140447999675976</title>
<path d="M215,-332.3799C215,-324.1745 215,-314.7679 215,-305.8786" fill="none" stroke="#000000"/>
<polygon fill="#000000" points="218.5001,-305.784 215,-295.784 211.5001,-305.784 218.5001,-305.784" stroke="#000000"/>
</g>
<!-- 140447999676312 -->
<g class="node" id="node6">
<title>140447999676312</title>
<polygon fill="none" points="109,-166.5 109,-212.5 321,-212.5 321,-166.5 109,-166.5" stroke="#000000"/>
<text fill="#000000" font-family="Times,serif" font-size="14.00" text-anchor="middle" x="155" y="-185.8">dense: Dense</text>
<polyline fill="none" points="201,-166.5 201,-212.5 " stroke="#000000"/>
<text fill="#000000" font-family="Times,serif" font-size="14.00" text-anchor="middle" x="230" y="-197.3">input:</text>
<polyline fill="none" points="201,-189.5 259,-189.5 " stroke="#000000"/>
<text fill="#000000" font-family="Times,serif" font-size="14.00" text-anchor="middle" x="230" y="-174.3">output:</text>
<polyline fill="none" points="259,-166.5 259,-212.5 " stroke="#000000"/>
<text fill="#000000" font-family="Times,serif" font-size="14.00" text-anchor="middle" x="290" y="-197.3">(?, 768)</text>
<polyline fill="none" points="259,-189.5 321,-189.5 " stroke="#000000"/>
<text fill="#000000" font-family="Times,serif" font-size="14.00" text-anchor="middle" x="290" y="-174.3">(?, 192)</text>
</g>
<!-- 140447999675976&#45;&gt;140447999676312 -->
<g class="edge" id="edge4">
<title>140447999675976-&gt;140447999676312</title>
<path d="M215,-249.3799C215,-241.1745 215,-231.7679 215,-222.8786" fill="none" stroke="#000000"/>
<polygon fill="#000000" points="218.5001,-222.784 215,-212.784 211.5001,-222.784 218.5001,-222.784" stroke="#000000"/>
</g>
<!-- 140447999674912 -->
<g class="node" id="node7">
<title>140447999674912</title>
<polygon fill="none" points="95.5,-83.5 95.5,-129.5 334.5,-129.5 334.5,-83.5 95.5,-83.5" stroke="#000000"/>
<text fill="#000000" font-family="Times,serif" font-size="14.00" text-anchor="middle" x="155" y="-102.8">dropout: Dropout</text>
<polyline fill="none" points="214.5,-83.5 214.5,-129.5 " stroke="#000000"/>
<text fill="#000000" font-family="Times,serif" font-size="14.00" text-anchor="middle" x="243.5" y="-114.3">input:</text>
<polyline fill="none" points="214.5,-106.5 272.5,-106.5 " stroke="#000000"/>
<text fill="#000000" font-family="Times,serif" font-size="14.00" text-anchor="middle" x="243.5" y="-91.3">output:</text>
<polyline fill="none" points="272.5,-83.5 272.5,-129.5 " stroke="#000000"/>
<text fill="#000000" font-family="Times,serif" font-size="14.00" text-anchor="middle" x="303.5" y="-114.3">(?, 192)</text>
<polyline fill="none" points="272.5,-106.5 334.5,-106.5 " stroke="#000000"/>
<text fill="#000000" font-family="Times,serif" font-size="14.00" text-anchor="middle" x="303.5" y="-91.3">(?, 192)</text>
</g>
<!-- 140447999676312&#45;&gt;140447999674912 -->
<g class="edge" id="edge5">
<title>140447999676312-&gt;140447999674912</title>
<path d="M215,-166.3799C215,-158.1745 215,-148.7679 215,-139.8786" fill="none" stroke="#000000"/>
<polygon fill="#000000" points="218.5001,-139.784 215,-129.784 211.5001,-139.784 218.5001,-139.784" stroke="#000000"/>
</g>
<!-- 140447993884912 -->
<g class="node" id="node8">
<title>140447993884912</title>
<polygon fill="none" points="101.5,-.5 101.5,-46.5 328.5,-46.5 328.5,-.5 101.5,-.5" stroke="#000000"/>
<text fill="#000000" font-family="Times,serif" font-size="14.00" text-anchor="middle" x="155" y="-19.8">dense_1: Dense</text>
<polyline fill="none" points="208.5,-.5 208.5,-46.5 " stroke="#000000"/>
<text fill="#000000" font-family="Times,serif" font-size="14.00" text-anchor="middle" x="237.5" y="-31.3">input:</text>
<polyline fill="none" points="208.5,-23.5 266.5,-23.5 " stroke="#000000"/>
<text fill="#000000" font-family="Times,serif" font-size="14.00" text-anchor="middle" x="237.5" y="-8.3">output:</text>
<polyline fill="none" points="266.5,-.5 266.5,-46.5 " stroke="#000000"/>
<text fill="#000000" font-family="Times,serif" font-size="14.00" text-anchor="middle" x="297.5" y="-31.3">(?, 192)</text>
<polyline fill="none" points="266.5,-23.5 328.5,-23.5 " stroke="#000000"/>
<text fill="#000000" font-family="Times,serif" font-size="14.00" text-anchor="middle" x="297.5" y="-8.3">(?, 1)</text>
</g>
<!-- 140447999674912&#45;&gt;140447993884912 -->
<g class="edge" id="edge6">
<title>140447999674912-&gt;140447993884912</title>
<path d="M215,-83.3799C215,-75.1745 215,-65.7679 215,-56.8786" fill="none" stroke="#000000"/>
<polygon fill="#000000" points="218.5001,-56.784 215,-46.784 211.5001,-56.784 218.5001,-56.784" stroke="#000000"/>
</g>
</g>
</svg>