<svg xmlns="http://www.w3.org/2000/svg" viewBox="0 0 1450 610" font-family="Helvetica Neue, Arial, sans-serif"><defs>
<pattern id="hatch" width="9" height="9" patternTransform="rotate(45)" patternUnits="userSpaceOnUse">
  <line x1="0" y1="0" x2="0" y2="9" stroke="#c8c8c8" stroke-width="2.5"/>
</pattern>
<marker id="arr" markerWidth="10" markerHeight="10" refX="8" refY="4" orient="auto">
  <path d="M0,0 L9,4 L0,8 z" fill="#1a1a1a"/>
</marker>
</defs><rect x="0" y="0" width="1450" height="610" fill="white"/><text x="725" y="50" font-family="Helvetica Neue, Arial, sans-serif" font-size="24" text-anchor="middle" font-weight="bold">static batching — 정원이 차야 출발, 전원이 끝나야 해산</text><text x="250" y="100" font-family="Helvetica Neue, Arial, sans-serif" font-size="17" text-anchor="start" font-weight="bold" font-style="italic">요청 A·B·C가 다 모이면 출발</text><text x="120" y="128" font-family="Helvetica Neue, Arial, sans-serif" font-size="15" text-anchor="start" font-style="italic">iteration:</text><text x="292.5" y="128" font-family="Helvetica Neue, Arial, sans-serif" font-size="16" text-anchor="middle" font-weight="bold">1</text><text x="385.5" y="128" font-family="Helvetica Neue, Arial, sans-serif" font-size="16" text-anchor="middle" font-weight="bold">2</text><text x="478.5" y="128" font-family="Helvetica Neue, Arial, sans-serif" font-size="16" text-anchor="middle" font-weight="bold">3</text><text x="571.5" y="128" font-family="Helvetica Neue, Arial, sans-serif" font-size="16" text-anchor="middle" font-weight="bold">4</text><text x="664.5" y="128" font-family="Helvetica Neue, Arial, sans-serif" font-size="16" text-anchor="middle" font-weight="bold">5</text><text x="757.5" y="128" font-family="Helvetica Neue, Arial, sans-serif" font-size="16" text-anchor="middle" font-weight="bold">6</text><text x="850.5" y="128" font-family="Helvetica Neue, Arial, sans-serif" font-size="16" text-anchor="middle" font-weight="bold">7</text><text x="943.5" y="128" font-family="Helvetica Neue, Arial, sans-serif" font-size="16" text-anchor="middle" font-weight="bold">8</text><text x="1036.5" y="128" font-family="Helvetica Neue, Arial, sans-serif" font-size="16" text-anchor="middle" font-weight="bold">9</text><text x="1129.5" y="128" font-family="Helvetica Neue, Arial, sans-serif" font-size="16" text-anchor="middle" font-weight="bold"></text><text x="1222.5" y="128" font-family="Helvetica Neue, Arial, sans-serif" font-size="16" text-anchor="middle" font-weight="bold">300</text><text x="236" y="200.0" font-family="Helvetica Neue, Arial, sans-serif" font-size="17" text-anchor="end" font-weight="bold">슬롯 1</text><text x="236" y="312.0" font-family="Helvetica Neue, Arial, sans-serif" font-size="17" text-anchor="end" font-weight="bold">슬롯 2</text><text x="236" y="424.0" font-family="Helvetica Neue, Arial, sans-serif" font-size="17" text-anchor="end" font-weight="bold">슬롯 3</text><rect x="250" y="150" width="85" height="88" rx="8" fill="#bdd7ee" stroke="#1a1a1a" stroke-width="2.5"/><text x="292.5" y="200.0" font-family="Helvetica Neue, Arial, sans-serif" font-size="16" text-anchor="middle" font-weight="bold">A</text><rect x="343" y="150" width="85" height="88" rx="8" fill="#c6e0b4" stroke="#1a1a1a" stroke-width="2.5"/><text x="385.5" y="200.0" font-family="Helvetica Neue, Arial, sans-serif" font-size="16" text-anchor="middle" font-weight="bold">A</text><rect x="436" y="150" width="85" height="88" rx="8" fill="#c6e0b4" stroke="#1a1a1a" stroke-width="2.5"/><text x="478.5" y="200.0" font-family="Helvetica Neue, Arial, sans-serif" font-size="16" text-anchor="middle" font-weight="bold">A</text><rect x="529" y="150" width="85" height="88" rx="8" fill="#f8cbad" stroke="#1a1a1a" stroke-width="2.5"/><text x="571.5" y="200.0" font-family="Helvetica Neue, Arial, sans-serif" font-size="16" text-anchor="middle" font-weight="bold">EOS</text><rect x="622" y="150" width="85" height="88" rx="8" fill="white" stroke="#aaaaaa" stroke-width="1.5"/><rect x="622" y="150" width="85" height="88" rx="8" fill="url(#hatch)" stroke="none"/><rect x="715" y="150" width="85" height="88" rx="8" fill="white" stroke="#aaaaaa" stroke-width="1.5"/><rect x="715" y="150" width="85" height="88" rx="8" fill="url(#hatch)" stroke="none"/><rect x="808" y="150" width="85" height="88" rx="8" fill="white" stroke="#aaaaaa" stroke-width="1.5"/><rect x="808" y="150" width="85" height="88" rx="8" fill="url(#hatch)" stroke="none"/><rect x="901" y="150" width="85" height="88" rx="8" fill="white" stroke="#aaaaaa" stroke-width="1.5"/><rect x="901" y="150" width="85" height="88" rx="8" fill="url(#hatch)" stroke="none"/><rect x="994" y="150" width="85" height="88" rx="8" fill="white" stroke="#aaaaaa" stroke-width="1.5"/><rect x="994" y="150" width="85" height="88" rx="8" fill="url(#hatch)" stroke="none"/><text x="1129.5" y="201.0" font-family="Helvetica Neue, Arial, sans-serif" font-size="18" text-anchor="middle" font-weight="bold">•••</text><rect x="1180" y="150" width="85" height="88" rx="8" fill="white" stroke="#aaaaaa" stroke-width="1.5"/><rect x="1180" y="150" width="85" height="88" rx="8" fill="url(#hatch)" stroke="none"/><rect x="250" y="262" width="85" height="88" rx="8" fill="#bdd7ee" stroke="#1a1a1a" stroke-width="2.5"/><text x="292.5" y="312.0" font-family="Helvetica Neue, Arial, sans-serif" font-size="16" text-anchor="middle" font-weight="bold">B</text><rect x="343" y="262" width="85" height="88" rx="8" fill="#c6e0b4" stroke="#1a1a1a" stroke-width="2.5"/><text x="385.5" y="312.0" font-family="Helvetica Neue, Arial, sans-serif" font-size="16" text-anchor="middle" font-weight="bold">B</text><rect x="436" y="262" width="85" height="88" rx="8" fill="#c6e0b4" stroke="#1a1a1a" stroke-width="2.5"/><text x="478.5" y="312.0" font-family="Helvetica Neue, Arial, sans-serif" font-size="16" text-anchor="middle" font-weight="bold">B</text><rect x="529" y="262" width="85" height="88" rx="8" fill="#c6e0b4" stroke="#1a1a1a" stroke-width="2.5"/><text x="571.5" y="312.0" font-family="Helvetica Neue, Arial, sans-serif" font-size="16" text-anchor="middle" font-weight="bold">B</text><rect x="622" y="262" width="85" height="88" rx="8" fill="#c6e0b4" stroke="#1a1a1a" stroke-width="2.5"/><text x="664.5" y="312.0" font-family="Helvetica Neue, Arial, sans-serif" font-size="16" text-anchor="middle" font-weight="bold">B</text><rect x="715" y="262" width="85" height="88" rx="8" fill="#c6e0b4" stroke="#1a1a1a" stroke-width="2.5"/><text x="757.5" y="312.0" font-family="Helvetica Neue, Arial, sans-serif" font-size="16" text-anchor="middle" font-weight="bold">B</text><rect x="808" y="262" width="85" height="88" rx="8" fill="#c6e0b4" stroke="#1a1a1a" stroke-width="2.5"/><text x="850.5" y="312.0" font-family="Helvetica Neue, Arial, sans-serif" font-size="16" text-anchor="middle" font-weight="bold">B</text><rect x="901" y="262" width="85" height="88" rx="8" fill="#f8cbad" stroke="#1a1a1a" stroke-width="2.5"/><text x="943.5" y="312.0" font-family="Helvetica Neue, Arial, sans-serif" font-size="16" text-anchor="middle" font-weight="bold">EOS</text><rect x="994" y="262" width="85" height="88" rx="8" fill="white" stroke="#aaaaaa" stroke-width="1.5"/><rect x="994" y="262" width="85" height="88" rx="8" fill="url(#hatch)" stroke="none"/><text x="1129.5" y="313.0" font-family="Helvetica Neue, Arial, sans-serif" font-size="18" text-anchor="middle" font-weight="bold">•••</text><rect x="1180" y="262" width="85" height="88" rx="8" fill="white" stroke="#aaaaaa" stroke-width="1.5"/><rect x="1180" y="262" width="85" height="88" rx="8" fill="url(#hatch)" stroke="none"/><rect x="250" y="374" width="85" height="88" rx="8" fill="#bdd7ee" stroke="#1a1a1a" stroke-width="2.5"/><text x="292.5" y="424.0" font-family="Helvetica Neue, Arial, sans-serif" font-size="16" text-anchor="middle" font-weight="bold">C</text><rect x="343" y="374" width="85" height="88" rx="8" fill="#c6e0b4" stroke="#1a1a1a" stroke-width="2.5"/><text x="385.5" y="424.0" font-family="Helvetica Neue, Arial, sans-serif" font-size="16" text-anchor="middle" font-weight="bold">C</text><rect x="436" y="374" width="85" height="88" rx="8" fill="#c6e0b4" stroke="#1a1a1a" stroke-width="2.5"/><text x="478.5" y="424.0" font-family="Helvetica Neue, Arial, sans-serif" font-size="16" text-anchor="middle" font-weight="bold">C</text><rect x="529" y="374" width="85" height="88" rx="8" fill="#c6e0b4" stroke="#1a1a1a" stroke-width="2.5"/><text x="571.5" y="424.0" font-family="Helvetica Neue, Arial, sans-serif" font-size="16" text-anchor="middle" font-weight="bold">C</text><rect x="622" y="374" width="85" height="88" rx="8" fill="#c6e0b4" stroke="#1a1a1a" stroke-width="2.5"/><text x="664.5" y="424.0" font-family="Helvetica Neue, Arial, sans-serif" font-size="16" text-anchor="middle" font-weight="bold">C</text><rect x="715" y="374" width="85" height="88" rx="8" fill="#c6e0b4" stroke="#1a1a1a" stroke-width="2.5"/><text x="757.5" y="424.0" font-family="Helvetica Neue, Arial, sans-serif" font-size="16" text-anchor="middle" font-weight="bold">C</text><rect x="808" y="374" width="85" height="88" rx="8" fill="#c6e0b4" stroke="#1a1a1a" stroke-width="2.5"/><text x="850.5" y="424.0" font-family="Helvetica Neue, Arial, sans-serif" font-size="16" text-anchor="middle" font-weight="bold">C</text><rect x="901" y="374" width="85" height="88" rx="8" fill="#c6e0b4" stroke="#1a1a1a" stroke-width="2.5"/><text x="943.5" y="424.0" font-family="Helvetica Neue, Arial, sans-serif" font-size="16" text-anchor="middle" font-weight="bold">C</text><rect x="994" y="374" width="85" height="88" rx="8" fill="#c6e0b4" stroke="#1a1a1a" stroke-width="2.5"/><text x="1036.5" y="424.0" font-family="Helvetica Neue, Arial, sans-serif" font-size="16" text-anchor="middle" font-weight="bold">C</text><text x="1129.5" y="425.0" font-family="Helvetica Neue, Arial, sans-serif" font-size="18" text-anchor="middle" font-weight="bold">•••</text><rect x="1180" y="374" width="85" height="88" rx="8" fill="#f8cbad" stroke="#1a1a1a" stroke-width="2.5"/><text x="1222.5" y="424.0" font-family="Helvetica Neue, Arial, sans-serif" font-size="16" text-anchor="middle" font-weight="bold">EOS</text><text x="1300" y="200.0" font-family="Helvetica Neue, Arial, sans-serif" font-size="14" text-anchor="start" font-style="italic">296 it 낭비</text><text x="1300" y="312.0" font-family="Helvetica Neue, Arial, sans-serif" font-size="14" text-anchor="start" font-style="italic">291 it 낭비</text><text x="725" y="510" font-family="Helvetica Neue, Arial, sans-serif" font-size="17" text-anchor="middle" font-weight="bold">새 요청 D·E는 큐에서 대기 — C가 끝나는 300번째 iteration까지 못 들어온다</text><rect x="340" y="544" width="24" height="24" rx="5" fill="#bdd7ee" stroke="#1a1a1a" stroke-width="2"/><text x="374" y="562" font-family="Helvetica Neue, Arial, sans-serif" font-size="15" text-anchor="start">prefill</text><rect x="511" y="544" width="24" height="24" rx="5" fill="#c6e0b4" stroke="#1a1a1a" stroke-width="2"/><text x="545" y="562" font-family="Helvetica Neue, Arial, sans-serif" font-size="15" text-anchor="start">decode (토큰 1개)</text><rect x="773" y="544" width="24" height="24" rx="5" fill="#f8cbad" stroke="#1a1a1a" stroke-width="2"/><text x="807" y="562" font-family="Helvetica Neue, Arial, sans-serif" font-size="15" text-anchor="start">EOS (종료)</text><rect x="957" y="544" width="24" height="24" rx="5" fill="white" stroke="#aaaaaa" stroke-width="1.5"/><rect x="957" y="544" width="24" height="24" rx="5" fill="url(#hatch)" stroke="none"/><text x="991" y="562" font-family="Helvetica Neue, Arial, sans-serif" font-size="15" text-anchor="start">빈 슬롯 (낭비)</text></svg>