
<svg height="349pt" viewBox="0.00 0.00 1135.50 387.00" width="1025pt" xmlns="http://www.w3.org/2000/svg" xmlns:xlink="http://www.w3.org/1999/xlink">
<g class="graph" id="graph0" transform="scale(.9028 .9028) rotate(0) translate(4 383)">
<title>G</title>
<polygon fill="#ffffff" points="-4,4 -4,-383 1131.5,-383 1131.5,4 -4,4" stroke="transparent"/>
<!-- 139751299168184 -->
<g class="node" id="node1">
<title>139751299168184</title>
<polygon fill="none" points="0,-332.5 0,-378.5 247,-378.5 247,-332.5 0,-332.5" stroke="#000000"/>
<text fill="#000000" font-family="Times,serif" font-size="14.00" text-anchor="middle" x="66.5" y="-351.8">input_2: InputLayer</text>
<polyline fill="none" points="133,-332.5 133,-378.5 " stroke="#000000"/>
<text fill="#000000" font-family="Times,serif" font-size="14.00" text-anchor="middle" x="162" y="-363.3">input:</text>
<polyline fill="none" points="133,-355.5 191,-355.5 " stroke="#000000"/>
<text fill="#000000" font-family="Times,serif" font-size="14.00" text-anchor="middle" x="162" y="-340.3">output:</text>
<polyline fill="none" points="191,-332.5 191,-378.5 " stroke="#000000"/>
<text fill="#000000" font-family="Times,serif" font-size="14.00" text-anchor="middle" x="219" y="-363.3">[(?, 1)]</text>
<polyline fill="none" points="191,-355.5 247,-355.5 " stroke="#000000"/>
<text fill="#000000" font-family="Times,serif" font-size="14.00" text-anchor="middle" x="219" y="-340.3">[(?, 1)]</text>
</g>
<!-- 139751298982856 -->
<g class="node" id="node2">
<title>139751298982856</title>
<polygon fill="none" points="5,-249.5 5,-295.5 242,-295.5 242,-249.5 5,-249.5" stroke="#000000"/>
<text fill="#000000" font-family="Times,serif" font-size="14.00" text-anchor="middle" x="83" y="-268.8">embedding: Embedding</text>
<polyline fill="none" points="161,-249.5 161,-295.5 " stroke="#000000"/>
<text fill="#000000" font-family="Times,serif" font-size="14.00" text-anchor="middle" x="190" y="-280.3">input:</text>
<polyline fill="none" points="161,-272.5 219,-272.5 " stroke="#000000"/>
<text fill="#000000" font-family="Times,serif" font-size="14.00" text-anchor="middle" x="190" y="-257.3">output:</text>
<polyline fill="none" points="219,-249.5 219,-295.5 " stroke="#000000"/>
<text fill="#000000" font-family="Times,serif" font-size="14.00" text-anchor="middle" x="230.5" y="-280.3">?</text>
<polyline fill="none" points="219,-272.5 242,-272.5 " stroke="#000000"/>
<text fill="#000000" font-family="Times,serif" font-size="14.00" text-anchor="middle" x="230.5" y="-257.3">?</text>
</g>
<!-- 139751299168184&#45;&gt;139751298982856 -->
<g class="edge" id="edge1">
<title>139751299168184-&gt;139751298982856</title>
<path d="M123.5,-332.3799C123.5,-324.1745 123.5,-314.7679 123.5,-305.8786" fill="none" stroke="#000000"/>
<polygon fill="#000000" points="127.0001,-305.784 123.5,-295.784 120.0001,-305.784 127.0001,-305.784" stroke="#000000"/>
</g>
<!-- 139751298989584 -->
<g class="node" id="node5">
<title>139751298989584</title>
<polygon fill="none" points="216,-166.5 216,-212.5 567,-212.5 567,-166.5 216,-166.5" stroke="#000000"/>
<text fill="#000000" font-family="Times,serif" font-size="14.00" text-anchor="middle" x="267" y="-185.8">lstm_2: LSTM</text>
<polyline fill="none" points="318,-166.5 318,-212.5 " stroke="#000000"/>
<text fill="#000000" font-family="Times,serif" font-size="14.00" text-anchor="middle" x="347" y="-197.3">input:</text>
<polyline fill="none" points="318,-189.5 376,-189.5 " stroke="#000000"/>
<text fill="#000000" font-family="Times,serif" font-size="14.00" text-anchor="middle" x="347" y="-174.3">output:</text>
<polyline fill="none" points="376,-166.5 376,-212.5 " stroke="#000000"/>
<text fill="#000000" font-family="Times,serif" font-size="14.00" text-anchor="middle" x="471.5" y="-197.3">[(?, 1, 128), (?, 128), (?, 128)]</text>
<polyline fill="none" points="376,-189.5 567,-189.5 " stroke="#000000"/>
<text fill="#000000" font-family="Times,serif" font-size="14.00" text-anchor="middle" x="471.5" y="-174.3">[(?, 1, 128), (?, 128), (?, 128)]</text>
</g>
<!-- 139751298982856&#45;&gt;139751298989584 -->
<g class="edge" id="edge2">
<title>139751298982856-&gt;139751298989584</title>
<path d="M197.797,-249.4901C231.7801,-238.9655 272.2027,-226.4466 307.3078,-215.5745" fill="none" stroke="#000000"/>
<polygon fill="#000000" points="308.5415,-218.8565 317.0584,-212.5547 306.4706,-212.1698 308.5415,-218.8565" stroke="#000000"/>
</g>
<!-- 139751297830248 -->
<g class="node" id="node3">
<title>139751297830248</title>
<polygon fill="none" points="260.5,-249.5 260.5,-295.5 522.5,-295.5 522.5,-249.5 260.5,-249.5" stroke="#000000"/>
<text fill="#000000" font-family="Times,serif" font-size="14.00" text-anchor="middle" x="327" y="-268.8">input_3: InputLayer</text>
<polyline fill="none" points="393.5,-249.5 393.5,-295.5 " stroke="#000000"/>
<text fill="#000000" font-family="Times,serif" font-size="14.00" text-anchor="middle" x="422.5" y="-280.3">input:</text>
<polyline fill="none" points="393.5,-272.5 451.5,-272.5 " stroke="#000000"/>
<text fill="#000000" font-family="Times,serif" font-size="14.00" text-anchor="middle" x="422.5" y="-257.3">output:</text>
<polyline fill="none" points="451.5,-249.5 451.5,-295.5 " stroke="#000000"/>
<text fill="#000000" font-family="Times,serif" font-size="14.00" text-anchor="middle" x="487" y="-280.3">[(?, 128)]</text>
<polyline fill="none" points="451.5,-272.5 522.5,-272.5 " stroke="#000000"/>
<text fill="#000000" font-family="Times,serif" font-size="14.00" text-anchor="middle" x="487" y="-257.3">[(?, 128)]</text>
</g>
<!-- 139751297830248&#45;&gt;139751298989584 -->
<g class="edge" id="edge3">
<title>139751297830248-&gt;139751298989584</title>
<path d="M391.5,-249.3799C391.5,-241.1745 391.5,-231.7679 391.5,-222.8786" fill="none" stroke="#000000"/>
<polygon fill="#000000" points="395.0001,-222.784 391.5,-212.784 388.0001,-222.784 395.0001,-222.784" stroke="#000000"/>
</g>
<!-- 139751292444856 -->
<g class="node" id="node4">
<title>139751292444856</title>
<polygon fill="none" points="540.5,-249.5 540.5,-295.5 802.5,-295.5 802.5,-249.5 540.5,-249.5" stroke="#000000"/>
<text fill="#000000" font-family="Times,serif" font-size="14.00" text-anchor="middle" x="607" y="-268.8">input_4: InputLayer</text>
<polyline fill="none" points="673.5,-249.5 673.5,-295.5 " stroke="#000000"/>
<text fill="#000000" font-family="Times,serif" font-size="14.00" text-anchor="middle" x="702.5" y="-280.3">input:</text>
<polyline fill="none" points="673.5,-272.5 731.5,-272.5 " stroke="#000000"/>
<text fill="#000000" font-family="Times,serif" font-size="14.00" text-anchor="middle" x="702.5" y="-257.3">output:</text>
<polyline fill="none" points="731.5,-249.5 731.5,-295.5 " stroke="#000000"/>
<text fill="#000000" font-family="Times,serif" font-size="14.00" text-anchor="middle" x="767" y="-280.3">[(?, 128)]</text>
<polyline fill="none" points="731.5,-272.5 802.5,-272.5 " stroke="#000000"/>
<text fill="#000000" font-family="Times,serif" font-size="14.00" text-anchor="middle" x="767" y="-257.3">[(?, 128)]</text>
</g>
<!-- 139751292444856&#45;&gt;139751298989584 -->
<g class="edge" id="edge4">
<title>139751292444856-&gt;139751298989584</title>
<path d="M593.8762,-249.4901C558.2198,-238.9205 515.7779,-226.3395 478.9921,-215.4352" fill="none" stroke="#000000"/>
<polygon fill="#000000" points="479.8572,-212.0411 469.2748,-212.5547 477.8677,-218.7525 479.8572,-212.0411" stroke="#000000"/>
</g>
<!-- 139751294670160 -->
<g class="node" id="node8">
<title>139751294670160</title>
<polygon fill="none" points="541,-83.5 541,-129.5 892,-129.5 892,-83.5 541,-83.5" stroke="#000000"/>
<text fill="#000000" font-family="Times,serif" font-size="14.00" text-anchor="middle" x="592" y="-102.8">lstm_3: LSTM</text>
<polyline fill="none" points="643,-83.5 643,-129.5 " stroke="#000000"/>
<text fill="#000000" font-family="Times,serif" font-size="14.00" text-anchor="middle" x="672" y="-114.3">input:</text>
<polyline fill="none" points="643,-106.5 701,-106.5 " stroke="#000000"/>
<text fill="#000000" font-family="Times,serif" font-size="14.00" text-anchor="middle" x="672" y="-91.3">output:</text>
<polyline fill="none" points="701,-83.5 701,-129.5 " stroke="#000000"/>
<text fill="#000000" font-family="Times,serif" font-size="14.00" text-anchor="middle" x="796.5" y="-114.3">[(?, 1, 128), (?, 128), (?, 128)]</text>
<polyline fill="none" points="701,-106.5 892,-106.5 " stroke="#000000"/>
<text fill="#000000" font-family="Times,serif" font-size="14.00" text-anchor="middle" x="796.5" y="-91.3">[(?, 1, 128), (?, 128), (?, 128)]</text>
</g>
<!-- 139751298989584&#45;&gt;139751294670160 -->
<g class="edge" id="edge5">
<title>139751298989584-&gt;139751294670160</title>
<path d="M481.599,-166.4901C523.4262,-155.8081 573.2979,-143.0716 616.3071,-132.0877" fill="none" stroke="#000000"/>
<polygon fill="#000000" points="617.4028,-135.4203 626.2257,-129.5547 615.6706,-128.638 617.4028,-135.4203" stroke="#000000"/>
</g>
<!-- 139751301601656 -->
<g class="node" id="node6">
<title>139751301601656</title>
<polygon fill="none" points="585.5,-166.5 585.5,-212.5 847.5,-212.5 847.5,-166.5 585.5,-166.5" stroke="#000000"/>
<text fill="#000000" font-family="Times,serif" font-size="14.00" text-anchor="middle" x="652" y="-185.8">input_5: InputLayer</text>
<polyline fill="none" points="718.5,-166.5 718.5,-212.5 " stroke="#000000"/>
<text fill="#000000" font-family="Times,serif" font-size="14.00" text-anchor="middle" x="747.5" y="-197.3">input:</text>
<polyline fill="none" points="718.5,-189.5 776.5,-189.5 " stroke="#000000"/>
<text fill="#000000" font-family="Times,serif" font-size="14.00" text-anchor="middle" x="747.5" y="-174.3">output:</text>
<polyline fill="none" points="776.5,-166.5 776.5,-212.5 " stroke="#000000"/>
<text fill="#000000" font-family="Times,serif" font-size="14.00" text-anchor="middle" x="812" y="-197.3">[(?, 128)]</text>
<polyline fill="none" points="776.5,-189.5 847.5,-189.5 " stroke="#000000"/>
<text fill="#000000" font-family="Times,serif" font-size="14.00" text-anchor="middle" x="812" y="-174.3">[(?, 128)]</text>
</g>
<!-- 139751301601656&#45;&gt;139751294670160 -->
<g class="edge" id="edge6">
<title>139751301601656-&gt;139751294670160</title>
<path d="M716.5,-166.3799C716.5,-158.1745 716.5,-148.7679 716.5,-139.8786" fill="none" stroke="#000000"/>
<polygon fill="#000000" points="720.0001,-139.784 716.5,-129.784 713.0001,-139.784 720.0001,-139.784" stroke="#000000"/>
</g>
<!-- 139751421525128 -->
<g class="node" id="node7">
<title>139751421525128</title>
<polygon fill="none" points="865.5,-166.5 865.5,-212.5 1127.5,-212.5 1127.5,-166.5 865.5,-166.5" stroke="#000000"/>
<text fill="#000000" font-family="Times,serif" font-size="14.00" text-anchor="middle" x="932" y="-185.8">input_6: InputLayer</text>
<polyline fill="none" points="998.5,-166.5 998.5,-212.5 " stroke="#000000"/>
<text fill="#000000" font-family="Times,serif" font-size="14.00" text-anchor="middle" x="1027.5" y="-197.3">input:</text>
<polyline fill="none" points="998.5,-189.5 1056.5,-189.5 " stroke="#000000"/>
<text fill="#000000" font-family="Times,serif" font-size="14.00" text-anchor="middle" x="1027.5" y="-174.3">output:</text>
<polyline fill="none" points="1056.5,-166.5 1056.5,-212.5 " stroke="#000000"/>
<text fill="#000000" font-family="Times,serif" font-size="14.00" text-anchor="middle" x="1092" y="-197.3">[(?, 128)]</text>
<polyline fill="none" points="1056.5,-189.5 1127.5,-189.5 " stroke="#000000"/>
<text fill="#000000" font-family="Times,serif" font-size="14.00" text-anchor="middle" x="1092" y="-174.3">[(?, 128)]</text>
</g>
<!-- 139751421525128&#45;&gt;139751294670160 -->
<g class="edge" id="edge7">
<title>139751421525128-&gt;139751294670160</title>
<path d="M918.8762,-166.4901C883.2198,-155.9205 840.7779,-143.3395 803.9921,-132.4352" fill="none" stroke="#000000"/>
<polygon fill="#000000" points="804.8572,-129.0411 794.2748,-129.5547 802.8677,-135.7525 804.8572,-129.0411" stroke="#000000"/>
</g>
<!-- 139751297830752 -->
<g class="node" id="node9">
<title>139751297830752</title>
<polygon fill="none" points="478.5,-.5 478.5,-46.5 954.5,-46.5 954.5,-.5 478.5,-.5" stroke="#000000"/>
<text fill="#000000" font-family="Times,serif" font-size="14.00" text-anchor="middle" x="641.5" y="-19.8">time_distributed_1(dense_1): TimeDistributed(Dense)</text>
<polyline fill="none" points="804.5,-.5 804.5,-46.5 " stroke="#000000"/>
<text fill="#000000" font-family="Times,serif" font-size="14.00" text-anchor="middle" x="833.5" y="-31.3">input:</text>
<polyline fill="none" points="804.5,-23.5 862.5,-23.5 " stroke="#000000"/>
<text fill="#000000" font-family="Times,serif" font-size="14.00" text-anchor="middle" x="833.5" y="-8.3">output:</text>
<polyline fill="none" points="862.5,-.5 862.5,-46.5 " stroke="#000000"/>
<text fill="#000000" font-family="Times,serif" font-size="14.00" text-anchor="middle" x="908.5" y="-31.3">(?, 1, 128)</text>
<polyline fill="none" points="862.5,-23.5 954.5,-23.5 " stroke="#000000"/>
<text fill="#000000" font-family="Times,serif" font-size="14.00" text-anchor="middle" x="908.5" y="-8.3">(?, 1, 20705)</text>
</g>
<!-- 139751294670160&#45;&gt;139751297830752 -->
<g class="edge" id="edge8">
<title>139751294670160-&gt;139751297830752</title>
<path d="M716.5,-83.3799C716.5,-75.1745 716.5,-65.7679 716.5,-56.8786" fill="none" stroke="#000000"/>
<polygon fill="#000000" points="720.0001,-56.784 716.5,-46.784 713.0001,-56.784 720.0001,-56.784" stroke="#000000"/>
</g>
</g>
</svg>