
<svg height="424pt" viewBox="0.00 0.00 720.00 470.00" width="650pt" xmlns="http://www.w3.org/2000/svg" xmlns:xlink="http://www.w3.org/1999/xlink">
<g class="graph" id="graph0" transform="scale(.9028 .9028) rotate(0) translate(4 466)">
<title>G</title>
<polygon fill="#ffffff" points="-4,4 -4,-466 716,-466 716,4 -4,4" stroke="transparent"/>
<!-- 140192974984808 -->
<g class="node" id="node1">
<title>140192974984808</title>
<polygon fill="none" points="15,-415.5 15,-461.5 269,-461.5 269,-415.5 15,-415.5" stroke="#000000"/>
<text fill="#000000" font-family="Times,serif" font-size="14.00" text-anchor="middle" x="81.5" y="-434.8">input_2: InputLayer</text>
<polyline fill="none" points="148,-415.5 148,-461.5 " stroke="#000000"/>
<text fill="#000000" font-family="Times,serif" font-size="14.00" text-anchor="middle" x="177" y="-446.3">input:</text>
<polyline fill="none" points="148,-438.5 206,-438.5 " stroke="#000000"/>
<text fill="#000000" font-family="Times,serif" font-size="14.00" text-anchor="middle" x="177" y="-423.3">output:</text>
<polyline fill="none" points="206,-415.5 206,-461.5 " stroke="#000000"/>
<text fill="#000000" font-family="Times,serif" font-size="14.00" text-anchor="middle" x="237.5" y="-446.3">[(?, 10)]</text>
<polyline fill="none" points="206,-438.5 269,-438.5 " stroke="#000000"/>
<text fill="#000000" font-family="Times,serif" font-size="14.00" text-anchor="middle" x="237.5" y="-423.3">[(?, 10)]</text>
</g>
<!-- 140195351181408 -->
<g class="node" id="node3">
<title>140195351181408</title>
<polygon fill="none" points="129,-332.5 129,-378.5 427,-378.5 427,-332.5 129,-332.5" stroke="#000000"/>
<text fill="#000000" font-family="Times,serif" font-size="14.00" text-anchor="middle" x="207" y="-351.8">embedding: Embedding</text>
<polyline fill="none" points="285,-332.5 285,-378.5 " stroke="#000000"/>
<text fill="#000000" font-family="Times,serif" font-size="14.00" text-anchor="middle" x="314" y="-363.3">input:</text>
<polyline fill="none" points="285,-355.5 343,-355.5 " stroke="#000000"/>
<text fill="#000000" font-family="Times,serif" font-size="14.00" text-anchor="middle" x="314" y="-340.3">output:</text>
<polyline fill="none" points="343,-332.5 343,-378.5 " stroke="#000000"/>
<text fill="#000000" font-family="Times,serif" font-size="14.00" text-anchor="middle" x="385" y="-363.3">(?, 10)</text>
<polyline fill="none" points="343,-355.5 427,-355.5 " stroke="#000000"/>
<text fill="#000000" font-family="Times,serif" font-size="14.00" text-anchor="middle" x="385" y="-340.3">(?, 10, 128)</text>
</g>
<!-- 140192974984808&#45;&gt;140195351181408 -->
<g class="edge" id="edge2">
<title>140192974984808-&gt;140195351181408</title>
<path d="M179.8836,-415.3799C195.8128,-405.6583 214.5052,-394.2505 231.2771,-384.0147" fill="none" stroke="#000000"/>
<polygon fill="#000000" points="233.1353,-386.9811 239.8479,-378.784 229.4886,-381.0059 233.1353,-386.9811" stroke="#000000"/>
</g>
<!-- 140191731151256 -->
<g class="node" id="node2">
<title>140191731151256</title>
<polygon fill="none" points="287,-415.5 287,-461.5 541,-461.5 541,-415.5 287,-415.5" stroke="#000000"/>
<text fill="#000000" font-family="Times,serif" font-size="14.00" text-anchor="middle" x="353.5" y="-434.8">input_1: InputLayer</text>
<polyline fill="none" points="420,-415.5 420,-461.5 " stroke="#000000"/>
<text fill="#000000" font-family="Times,serif" font-size="14.00" text-anchor="middle" x="449" y="-446.3">input:</text>
<polyline fill="none" points="420,-438.5 478,-438.5 " stroke="#000000"/>
<text fill="#000000" font-family="Times,serif" font-size="14.00" text-anchor="middle" x="449" y="-423.3">output:</text>
<polyline fill="none" points="478,-415.5 478,-461.5 " stroke="#000000"/>
<text fill="#000000" font-family="Times,serif" font-size="14.00" text-anchor="middle" x="509.5" y="-446.3">[(?, 10)]</text>
<polyline fill="none" points="478,-438.5 541,-438.5 " stroke="#000000"/>
<text fill="#000000" font-family="Times,serif" font-size="14.00" text-anchor="middle" x="509.5" y="-423.3">[(?, 10)]</text>
</g>
<!-- 140191731151256&#45;&gt;140195351181408 -->
<g class="edge" id="edge1">
<title>140191731151256-&gt;140195351181408</title>
<path d="M376.1164,-415.3799C360.1872,-405.6583 341.4948,-394.2505 324.7229,-384.0147" fill="none" stroke="#000000"/>
<polygon fill="#000000" points="326.5114,-381.0059 316.1521,-378.784 322.8647,-386.9811 326.5114,-381.0059" stroke="#000000"/>
</g>
<!-- 140195026145064 -->
<g class="node" id="node4">
<title>140195026145064</title>
<polygon fill="none" points="206.5,-249.5 206.5,-295.5 549.5,-295.5 549.5,-249.5 206.5,-249.5" stroke="#000000"/>
<text fill="#000000" font-family="Times,serif" font-size="14.00" text-anchor="middle" x="250" y="-268.8">lstm: LSTM</text>
<polyline fill="none" points="293.5,-249.5 293.5,-295.5 " stroke="#000000"/>
<text fill="#000000" font-family="Times,serif" font-size="14.00" text-anchor="middle" x="322.5" y="-280.3">input:</text>
<polyline fill="none" points="293.5,-272.5 351.5,-272.5 " stroke="#000000"/>
<text fill="#000000" font-family="Times,serif" font-size="14.00" text-anchor="middle" x="322.5" y="-257.3">output:</text>
<polyline fill="none" points="351.5,-249.5 351.5,-295.5 " stroke="#000000"/>
<text fill="#000000" font-family="Times,serif" font-size="14.00" text-anchor="middle" x="450.5" y="-280.3">(?, 10, 128)</text>
<polyline fill="none" points="351.5,-272.5 549.5,-272.5 " stroke="#000000"/>
<text fill="#000000" font-family="Times,serif" font-size="14.00" text-anchor="middle" x="450.5" y="-257.3">[(?, 10, 128), (?, 128), (?, 128)]</text>
</g>
<!-- 140195351181408&#45;&gt;140195026145064 -->
<g class="edge" id="edge3">
<title>140195351181408-&gt;140195026145064</title>
<path d="M305.8556,-332.3799C317.031,-323.1043 330.056,-312.2936 341.9392,-302.4304" fill="none" stroke="#000000"/>
<polygon fill="#000000" points="344.4875,-304.8639 349.947,-295.784 340.0168,-299.4775 344.4875,-304.8639" stroke="#000000"/>
</g>
<!-- 140192978144448 -->
<g class="node" id="node5">
<title>140192978144448</title>
<polygon fill="none" points="0,-166.5 0,-212.5 358,-212.5 358,-166.5 0,-166.5" stroke="#000000"/>
<text fill="#000000" font-family="Times,serif" font-size="14.00" text-anchor="middle" x="51" y="-185.8">lstm_2: LSTM</text>
<polyline fill="none" points="102,-166.5 102,-212.5 " stroke="#000000"/>
<text fill="#000000" font-family="Times,serif" font-size="14.00" text-anchor="middle" x="131" y="-197.3">input:</text>
<polyline fill="none" points="102,-189.5 160,-189.5 " stroke="#000000"/>
<text fill="#000000" font-family="Times,serif" font-size="14.00" text-anchor="middle" x="131" y="-174.3">output:</text>
<polyline fill="none" points="160,-166.5 160,-212.5 " stroke="#000000"/>
<text fill="#000000" font-family="Times,serif" font-size="14.00" text-anchor="middle" x="259" y="-197.3">[(?, 10, 128), (?, 128), (?, 128)]</text>
<polyline fill="none" points="160,-189.5 358,-189.5 " stroke="#000000"/>
<text fill="#000000" font-family="Times,serif" font-size="14.00" text-anchor="middle" x="259" y="-174.3">[(?, 10, 128), (?, 128), (?, 128)]</text>
</g>
<!-- 140195351181408&#45;&gt;140192978144448 -->
<g class="edge" id="edge4">
<title>140195351181408-&gt;140192978144448</title>
<path d="M234.8098,-332.2567C221.0205,-322.7738 207.0141,-310.5736 198,-296 184.5004,-274.1743 179.9987,-245.3067 178.7356,-223.1324" fill="none" stroke="#000000"/>
<polygon fill="#000000" points="182.2222,-222.7067 178.3504,-212.8447 175.2271,-222.9687 182.2222,-222.7067" stroke="#000000"/>
</g>
<!-- 140195026145064&#45;&gt;140192978144448 -->
<g class="edge" id="edge5">
<title>140195026145064-&gt;140192978144448</title>
<path d="M322.8317,-249.4901C298.245,-239.2353 269.1188,-227.0872 243.5287,-216.414" fill="none" stroke="#000000"/>
<polygon fill="#000000" points="244.8524,-213.1739 234.2756,-212.5547 242.1577,-219.6345 244.8524,-213.1739" stroke="#000000"/>
</g>
<!-- 140195026144952 -->
<g class="node" id="node6">
<title>140195026144952</title>
<polygon fill="none" points="376,-166.5 376,-212.5 712,-212.5 712,-166.5 376,-166.5" stroke="#000000"/>
<text fill="#000000" font-family="Times,serif" font-size="14.00" text-anchor="middle" x="427" y="-185.8">lstm_1: LSTM</text>
<polyline fill="none" points="478,-166.5 478,-212.5 " stroke="#000000"/>
<text fill="#000000" font-family="Times,serif" font-size="14.00" text-anchor="middle" x="507" y="-197.3">input:</text>
<polyline fill="none" points="478,-189.5 536,-189.5 " stroke="#000000"/>
<text fill="#000000" font-family="Times,serif" font-size="14.00" text-anchor="middle" x="507" y="-174.3">output:</text>
<polyline fill="none" points="536,-166.5 536,-212.5 " stroke="#000000"/>
<text fill="#000000" font-family="Times,serif" font-size="14.00" text-anchor="middle" x="624" y="-197.3">(?, 10, 128)</text>
<polyline fill="none" points="536,-189.5 712,-189.5 " stroke="#000000"/>
<text fill="#000000" font-family="Times,serif" font-size="14.00" text-anchor="middle" x="624" y="-174.3">[(?, 128), (?, 128), (?, 128)]</text>
</g>
<!-- 140195026145064&#45;&gt;140195026144952 -->
<g class="edge" id="edge6">
<title>140195026145064-&gt;140195026144952</title>
<path d="M424.2403,-249.3799C444.2128,-239.3936 467.7442,-227.6279 488.6378,-217.1811" fill="none" stroke="#000000"/>
<polygon fill="#000000" points="490.3411,-220.2426 497.7201,-212.6399 487.2106,-213.9816 490.3411,-220.2426" stroke="#000000"/>
</g>
<!-- 140192978145176 -->
<g class="node" id="node7">
<title>140192978145176</title>
<polygon fill="none" points="182,-83.5 182,-129.5 540,-129.5 540,-83.5 182,-83.5" stroke="#000000"/>
<text fill="#000000" font-family="Times,serif" font-size="14.00" text-anchor="middle" x="233" y="-102.8">lstm_3: LSTM</text>
<polyline fill="none" points="284,-83.5 284,-129.5 " stroke="#000000"/>
<text fill="#000000" font-family="Times,serif" font-size="14.00" text-anchor="middle" x="313" y="-114.3">input:</text>
<polyline fill="none" points="284,-106.5 342,-106.5 " stroke="#000000"/>
<text fill="#000000" font-family="Times,serif" font-size="14.00" text-anchor="middle" x="313" y="-91.3">output:</text>
<polyline fill="none" points="342,-83.5 342,-129.5 " stroke="#000000"/>
<text fill="#000000" font-family="Times,serif" font-size="14.00" text-anchor="middle" x="441" y="-114.3">[(?, 10, 128), (?, 128), (?, 128)]</text>
<polyline fill="none" points="342,-106.5 540,-106.5 " stroke="#000000"/>
<text fill="#000000" font-family="Times,serif" font-size="14.00" text-anchor="middle" x="441" y="-91.3">[(?, 10, 128), (?, 128), (?, 128)]</text>
</g>
<!-- 140192978144448&#45;&gt;140192978145176 -->
<g class="edge" id="edge7">
<title>140192978144448-&gt;140192978145176</title>
<path d="M229.6971,-166.3799C251.7912,-156.304 277.8573,-144.4167 300.9173,-133.9003" fill="none" stroke="#000000"/>
<polygon fill="#000000" points="302.6131,-136.9738 310.2594,-129.6399 299.7086,-130.6048 302.6131,-136.9738" stroke="#000000"/>
</g>
<!-- 140195026144952&#45;&gt;140192978145176 -->
<g class="edge" id="edge8">
<title>140195026144952-&gt;140192978145176</title>
<path d="M493.0243,-166.3799C470.8089,-156.304 444.5995,-144.4167 421.4128,-133.9003" fill="none" stroke="#000000"/>
<polygon fill="#000000" points="422.5722,-130.5831 412.0194,-129.6399 419.6808,-136.958 422.5722,-130.5831" stroke="#000000"/>
</g>
<!-- 140192975841208 -->
<g class="node" id="node8">
<title>140192975841208</title>
<polygon fill="none" points="134.5,-.5 134.5,-46.5 587.5,-46.5 587.5,-.5 134.5,-.5" stroke="#000000"/>
<text fill="#000000" font-family="Times,serif" font-size="14.00" text-anchor="middle" x="282.5" y="-19.8">time_distributed(dense): TimeDistributed(Dense)</text>
<polyline fill="none" points="430.5,-.5 430.5,-46.5 " stroke="#000000"/>
<text fill="#000000" font-family="Times,serif" font-size="14.00" text-anchor="middle" x="459.5" y="-31.3">input:</text>
<polyline fill="none" points="430.5,-23.5 488.5,-23.5 " stroke="#000000"/>
<text fill="#000000" font-family="Times,serif" font-size="14.00" text-anchor="middle" x="459.5" y="-8.3">output:</text>
<polyline fill="none" points="488.5,-.5 488.5,-46.5 " stroke="#000000"/>
<text fill="#000000" font-family="Times,serif" font-size="14.00" text-anchor="middle" x="538" y="-31.3">(?, 10, 128)</text>
<polyline fill="none" points="488.5,-23.5 587.5,-23.5 " stroke="#000000"/>
<text fill="#000000" font-family="Times,serif" font-size="14.00" text-anchor="middle" x="538" y="-8.3">(?, 10, 20705)</text>
</g>
<!-- 140192978145176&#45;&gt;140192975841208 -->
<g class="edge" id="edge9">
<title>140192978145176-&gt;140192975841208</title>
<path d="M361,-83.3799C361,-75.1745 361,-65.7679 361,-56.8786" fill="none" stroke="#000000"/>
<polygon fill="#000000" points="364.5001,-56.784 361,-46.784 357.5001,-56.784 364.5001,-56.784" stroke="#000000"/>
</g>
</g>
</svg>